<svg width="24" height="23" viewBox="0 0 24 23" fill="none" xmlns="http://www.w3.org/2000/svg">
<path fill-rule="evenodd" clip-rule="evenodd" d="M18.628 4.53581L19.0163 2.14275C19.2051 0.985892 18.3296 -0.126687 17.1951 0.0116935C15.8701 0.17406 14.3833 0.642708 13.3801 1.98961C12.7637 1.8813 12.1392 1.82821 11.5139 1.83094C8.82429 1.83094 6.37561 2.80513 4.55618 4.39743C4.51148 4.35441 4.46468 4.31377 4.41594 4.27566C3.64286 3.68708 2.95608 2.9103 2.6055 1.94348C2.47721 1.60411 2.22379 1.33028 1.90014 1.18133C1.57649 1.03238 1.20868 1.0203 0.876419 1.14772C0.544155 1.27514 0.274193 1.53178 0.125028 1.86205C-0.0241368 2.19231 -0.0404899 2.5696 0.0795121 2.91215C0.658422 4.50629 1.73354 5.67238 2.7709 6.4676C1.84103 7.90624 1.34398 9.59378 1.34161 11.3201C1.34161 13.1006 1.86658 14.7649 2.77989 16.1874C2.69959 16.372 2.63666 16.5675 2.59112 16.7742L2.1057 18.9329C1.9133 19.7917 2.06121 20.6938 2.51689 21.4407C2.97256 22.1875 3.69868 22.7181 4.5355 22.9155C5.37232 23.113 6.2513 22.9612 6.97907 22.4935C7.70683 22.0259 8.22378 21.2807 8.41617 20.4219L8.42876 20.3665C10.1657 20.8799 11.9982 20.9521 13.7684 20.5769C13.995 21.4022 14.5239 22.1055 15.2443 22.5398C15.9647 22.974 16.8208 23.1055 17.6336 22.9067C18.4463 22.7079 19.1526 22.1942 19.6047 21.4732C20.0568 20.7521 20.2196 19.8795 20.0591 19.0381L22.977 17.5399C23.2841 17.3821 23.5425 17.1398 23.7231 16.8401C23.9038 16.5403 23.9996 16.1949 24 15.8424V11.322C24 11.0724 23.9521 10.8253 23.859 10.5947C23.766 10.3642 23.6296 10.1547 23.4576 9.97819C23.2857 9.80172 23.0815 9.66173 22.8569 9.56623C22.6322 9.47072 22.3914 9.42157 22.1482 9.42157H21.483C21.0713 7.52852 20.0537 5.83843 18.628 4.53581ZM12.4398 7.0857C12.7378 7.0857 13.0236 6.96421 13.2343 6.74795C13.4451 6.53169 13.5634 6.23837 13.5634 5.93253C13.5634 5.62669 13.4451 5.33338 13.2343 5.11712C13.0236 4.90086 12.7378 4.77936 12.4398 4.77936H9.62973C9.33172 4.77936 9.04591 4.90086 8.83518 5.11712C8.62445 5.33338 8.50607 5.62669 8.50607 5.93253C8.50607 6.23837 8.62445 6.53169 8.83518 6.74795C9.04591 6.96421 9.33172 7.0857 9.62973 7.0857H12.4398ZM17.5259 8.36987C18.1462 8.36987 18.6496 8.88649 18.6496 9.52304V11.322C18.6496 11.6278 18.5312 11.9211 18.3205 12.1374C18.1097 12.3537 17.8239 12.4752 17.5259 12.4752C17.2279 12.4752 16.9421 12.3537 16.7314 12.1374C16.5206 11.9211 16.4023 11.6278 16.4023 11.322V9.52304C16.4023 8.88649 16.9057 8.36987 17.5259 8.36987Z" fill="#FD78A1"/>
</svg>
