<svg width="24" height="24" viewBox="0 0 24 24" fill="none" xmlns="http://www.w3.org/2000/svg">
<path fill-rule="evenodd" clip-rule="evenodd" d="M24 12C24 13.5759 23.6896 15.1363 23.0866 16.5922C22.4835 18.0481 21.5996 19.371 20.4853 20.4853C19.371 21.5996 18.0481 22.4835 16.5922 23.0866C15.1363 23.6896 13.5759 24 12 24C10.4241 24 8.86371 23.6896 7.4078 23.0866C5.95189 22.4835 4.62902 21.5996 3.51472 20.4853C2.40042 19.371 1.5165 18.0481 0.913445 16.5922C0.310389 15.1363 -2.34822e-08 13.5759 0 12C4.74244e-08 8.8174 1.26428 5.76516 3.51472 3.51472C5.76516 1.26428 8.8174 0 12 0C15.1826 0 18.2348 1.26428 20.4853 3.51472C22.7357 5.76516 24 8.8174 24 12ZM13.6667 17.6667C13.6667 18.1087 13.4911 18.5326 13.1785 18.8452C12.866 19.1577 12.442 19.3333 12 19.3333C11.558 19.3333 11.134 19.1577 10.8215 18.8452C10.5089 18.5326 10.3333 18.1087 10.3333 17.6667C10.3333 17.2246 10.5089 16.8007 10.8215 16.4882C11.134 16.1756 11.558 16 12 16C12.442 16 12.866 16.1756 13.1785 16.4882C13.4911 16.8007 13.6667 17.2246 13.6667 17.6667ZM13.3333 4.66667H10.6667V14H13.3333V4.66667Z" fill="#F24822"/>
</svg>
